<?xml version="1.0" encoding="utf-8"?>
<!-- Generator: Adobe Illustrator 25.2.1, SVG Export Plug-In . SVG Version: 6.00 Build 0)  -->
<svg version="1.1" id="Camada_1" xmlns="http://www.w3.org/2000/svg" xmlns:xlink="http://www.w3.org/1999/xlink" x="0px" y="0px"
	 viewBox="0 0 200 200" style="enable-background:new 0 0 200 200;" xml:space="preserve">
<style type="text/css">
	.st0{fill:#FF0000;}
</style>
<g transform="translate(0.000000,200.000000) scale(0.100000,-0.100000)">
	<path class="st0" d="M369.8,1734.1c-146.1-140.4-248.5-419.2-216.3-588.1c15.2-83.5,102.4-189.7,182.1-221.9
		c74-30.4,218.1-15.2,282.6,32.2c26.6,20.9,68.3,74,93,121.4c51.2,96.7,45.5,195.4-15.2,292.1c-45.5,72.1-100.5,106.2-218.1,132.8
		c-60.7,13.3-96.7,32.2-100.5,53.1c-3.8,17.1,15.2,81.6,39.8,144.2c26.6,64.5,43.6,115.7,41.7,115.7
		C455.2,1815.7,415.4,1779.6,369.8,1734.1z"/>
	<path class="st0" d="M1196.9,1542.5c-182.1-79.7-225.7-339.6-79.7-479.9c134.7-129,311.1-119.5,442,24.7
		c43.6,45.5,87.3,83.5,98.6,83.5c20.9,0,98.6-81.6,163.1-170.7l32.2-47.4l-11.4,66.4c-32.2,189.7-204.9,428.7-369.9,512.2
		C1388.5,1574.8,1280.4,1578.6,1196.9,1542.5z"/>
	<path class="st0" d="M819.4,800.8c-159.3-56.9-223.8-195.4-180.2-383.2c20.9-83.5,20.9-106.2,1.9-119.5
		c-36-20.9-227.6-41.7-252.3-26.6c-11.4,7.6-15.2,3.8-9.5-7.6c24.7-37.9,191.6-79.7,326.3-79.7c140.4,0,305.4,37.9,383.2,89.2
		c72.1,47.4,119.5,144.2,119.5,240.9c0,142.3-75.9,248.5-206.8,294C921.8,835,914.3,835,819.4,800.8z"/>
</g>
</svg>
